<svg width="34" height="28" viewBox="0 0 34 28" fill="none" xmlns="http://www.w3.org/2000/svg">
<g clip-path="url(#clip0_126_3631)">
<path d="M21.8125 16.25H20.7263L20.3413 15.9462C21.6888 14.6637 22.5 12.9988 22.5 11.1875C22.5 7.14875 18.4987 3.875 13.5625 3.875C8.62625 3.875 4.625 7.14875 4.625 11.1875C4.625 15.2262 8.62625 18.5 13.5625 18.5C15.7763 18.5 17.8112 17.8363 19.3787 16.7338L19.75 17.0488V17.9375L26.625 23.5512L28.6737 21.875L21.8125 16.25V16.25ZM13.5625 16.25C10.1387 16.25 7.375 13.9888 7.375 11.1875C7.375 8.38625 10.1387 6.125 13.5625 6.125C16.9863 6.125 19.75 8.38625 19.75 11.1875C19.75 13.9888 16.9863 16.25 13.5625 16.25Z" fill="white"/>
</g>
<defs>
<clipPath id="clip0_126_3631">
<rect width="33" height="27" fill="white" transform="translate(0.5 0.5)"/>
</clipPath>
</defs>
</svg>
